<?xml version="1.0" encoding="UTF-8"?><svg id="Layer_1" xmlns="http://www.w3.org/2000/svg" viewBox="0 0 91.2 91.2"><defs><style>.cls-1{fill:#990003;}.cls-2{fill:#ffb900;}.cls-3{fill:#7a0003;}.cls-4{fill:#fde8f3;}.cls-5{fill:#fff;}.cls-6{fill:#e30613;}.cls-7{fill:#b70003;}</style></defs><path class="cls-5" d="M57.07051,58.34623l-29.6095-11.34827c-.57281-.21948-1.14386-.05725-1.52441.30505-.38287.36462-.57263.93195-.37622,1.51709l9.9256,29.57007c.43732,1.30304,2.2475,1.38947,2.80713.13409l5.40247-12.12018c.08893-.19934.21985-.37384.38013-.51544.14319-.1264.30957-.22675.49323-.29193l12.46594-4.4209c1.32092-.46844,1.34436-2.32806.03564-2.82959Z"/><polygon class="cls-1" points="68.92695 18.80771 61.7782 18.80771 65.08936 91.2 74.37099 80.62456 68.92695 18.80771"/><path class="cls-7" d="M43.13057,5.44841c-2.31952,2.71161-3.72998,6.22278-3.72998,10.06256v3.24274c0,.0191.01025.03497.01093.05396h3.25165c.00067-.01898.01093-.03485.01093-.05396v-3.24274c0-2.99243,1.0827-5.73444,2.87231-7.86322-.70306-.83618-1.51587-1.57568-2.41583-2.19934Z"/><path class="cls-7" d="M76.62092,18.80766h-6.20935c.00067-.01898.01093-.03485.01093-.05396v-3.24274C70.4225,6.95805,63.46351-.00002,54.9106-.00002,51.39131-.00002,48.15242,1.19212,45.54658,3.17546c.88306.67206,1.69519,1.43018,2.41583,2.27246,1.97546-1.36884,4.36792-2.17627,6.94818-2.17627,6.74835,0,12.2384,5.49097,12.2384,12.23932v3.24274c0,.0191.01025.03497.01093.05396h1.76703l.13446,1.52618,5.30957,60.29071,8.86383,4.77136-6.61389-66.58826Z"/><polygon class="cls-3" points="74.37099 80.62456 65.08936 91.2 83.23484 85.39598 74.37099 80.62456"/><path class="cls-4" d="M44.07573,65.88864c-.16031.14158-.29123.31609-.38015.51547l-5.40247,12.12013c-.55964,1.25542-2.36978,1.16896-2.80714-.13409l-9.9256-29.57002c-.1964-.58519-.00662-1.15248.37627-1.51712l18.13909,18.58562Z"/><path class="cls-2" d="M29.25197,37.68047l-.34827,5.13489c-.04456.65729-.59167,1.16077-1.24078,1.16077-.02838,0-.05695-.00092-.08557-.00293-.68591-.04651-1.20441-.64044-1.15784-1.32629l.34827-5.13489c.04633-.68616.6424-1.20441,1.32629-1.1579.68591.04657,1.20441.64038,1.1579,1.32635ZM22.44581,49.08128c-.04791-.68591-.64624-1.19977-1.3288-1.15497l-5.13397.35913c-.68591.04785-1.20312.64288-1.15497,1.32874.04584.65619.59253,1.15808,1.24054,1.15808.02924,0,.05872-.0011.0882-.00305l5.13403-.35913c.68585-.04791,1.20306-.64288,1.15497-1.3288ZM21.74153,45.0078c.24316.24323.56171.36469.88031.36469.31854,0,.63708-.12146.88031-.36469.48615-.48615.48615-1.27441,0-1.76062l-3.84113-3.84113c-.48639-.48615-1.27429-.48615-1.76062,0-.48621.48615-.48621,1.27448,0,1.76062l3.84113,3.84113ZM35.81782,42.25206c-.37646-.57538-1.14789-.73657-1.72339-.3609l-2.60748,1.70453c-.5755.3764-.73706,1.14789-.3609,1.72339.23901.3653.63715.56372,1.04327.56372.23364,0,.46997-.06561.68011-.20282l2.60748-1.70453c.57544-.37646.73706-1.14789.3609-1.72339ZM23.79915,52.62737c-.57635-.37469-1.3476-.21198-1.72247.36444l-1.69873,2.61096c-.37512.57642-.21173,1.34766.36444,1.72253.20972.13629.44513.20148.67792.20148.40698,0,.80603-.19928,1.04456-.56592l1.69879-2.61102c.37506-.57642.21167-1.34766-.3645-1.72247Z"/><path class="cls-6" d="M61.77815,18.80766h-10.08514v-3.29669C51.69301,6.95805,44.73402-.00002,36.1811-.00002s-15.5119,6.95807-15.5119,15.51099v3.29669h-7.62262l-5.08142,67.76501,57.12439,4.62732-3.3114-72.39233ZM23.94276,15.51097c0-6.74835,5.48999-12.23932,12.23834-12.23932s12.2384,5.49097,12.2384,12.23932v3.29669h-24.47675v-3.29669ZM35.45692,43.97545l-2.60748,1.70453c-.21014.13721-.44647.20282-.68011.20282-.40613,0-.80426-.19843-1.04327-.56372-.37616-.5755-.2146-1.34698.3609-1.72339l2.60748-1.70453c.5755-.37567,1.34692-.21448,1.72339.3609.37616.5755.21454,1.34692-.3609,1.72339ZM29.25197,37.68047l-.34827,5.13489c-.04456.65729-.59167,1.16077-1.24078,1.16077-.02838,0-.05695-.00092-.08557-.00293-.68591-.04651-1.20441-.64044-1.15784-1.32629l.34827-5.13489c.04633-.68616.6424-1.20441,1.32629-1.1579.68591.04657,1.20441.64038,1.1579,1.32635ZM17.9004,39.40605c.48633-.48615,1.27423-.48615,1.76062,0l3.84113,3.84113c.48615.48621.48615,1.27448,0,1.76062-.24323.24323-.56177.36469-.88031.36469-.3186,0-.63715-.12146-.88031-.36469l-3.84113-3.84113c-.48621-.48615-.48621-1.27448,0-1.76062ZM16.06862,50.77226c-.64801,0-1.1947-.50189-1.24054-1.15808-.04816-.68585.46906-1.28088,1.15497-1.32874l5.13397-.35913c.68256-.0448,1.28088.46906,1.3288,1.15497.0481.68591-.46912,1.28088-1.15497,1.3288l-5.13403.35913c-.02948.00195-.05896.00305-.0882.00305ZM24.16365,54.34984l-1.69879,2.61102c-.23853.36664-.63757.56592-1.04456.56592-.23279,0-.4682-.06519-.67792-.20148-.57617-.37488-.73956-1.14612-.36444-1.72253l1.69873-2.61096c.37488-.57642,1.14612-.73914,1.72247-.36444.57617.37482.73956,1.14606.3645,1.72247ZM57.03486,61.17583l-12.46594,4.4209c-.18365.06519-.35004.16553-.49323.29193-.16028.1416-.2912.3161-.38013.51544l-5.40247,12.12018c-.55963,1.25537-2.36981,1.16895-2.80713-.13409l-9.9256-29.57007c-.19641-.58514-.00665-1.15247.37622-1.51709.38055-.3623.9516-.52454,1.52441-.30505l29.6095,11.34827c1.30872.50153,1.28528,2.36115-.03564,2.82959Z"/></svg>